<svg width="28" height="31" viewBox="0 0 28 31" fill="none" xmlns="http://www.w3.org/2000/svg">
<path d="M9.9 30C9.6 30 9.3 29.9 9.1 29.6C3.7 23.5 2.4 22.1 2.1 21.7C1.4 20.8 1 19.6 1 18.4C1 15.4 3.4 13 6.5 13C7.8 13 9 13.5 10 14.3C11 13.5 12.3 13 13.5 13C16.5 13 19 15.4 19 18.4C19 19.7 18.5 20.9 17.7 21.8L10.7 29.7C10.5 29.9 10.3 30 9.9 30ZM3.9 20.5C4.2 20.9 7.4 24.5 10 27.4L16.2 20.4C16.7 19.9 16.9 19.2 16.9 18.4C16.9 16.6 15.4 15.1 13.6 15.1C12.6 15.1 11.6 15.6 10.9 16.4C10.6 16.7 10.3 16.8 10 16.8C9.7 16.8 9.4 16.6 9.2 16.4C8.5 15.6 7.5 15.1 6.5 15.1C4.7 15.1 3.2 16.6 3.2 18.4C3.1 19.3 3.5 20 3.9 20.5C3.8 20.5 3.8 20.5 3.9 20.5Z" fill="black"/>
<rect x="8" width="20" height="20" rx="10" fill="#7DB54F"/>
<path d="M13.1308 13.26H14.5308V8.42L14.6308 7.83L14.2308 8.3L13.1308 9.09L12.7508 8.58L14.9508 6.88H15.3108V13.26H16.6808V14H13.1308V13.26ZM21.96 8.59C21.96 8.94333 21.8933 9.30667 21.76 9.68C21.6333 10.0467 21.4633 10.4167 21.25 10.79C21.0433 11.1633 20.81 11.53 20.55 11.89C20.29 12.2433 20.03 12.58 19.77 12.9L19.28 13.33V13.37L19.92 13.26H22.1V14H18.12V13.71C18.2667 13.5567 18.4433 13.3667 18.65 13.14C18.8567 12.9133 19.07 12.6633 19.29 12.39C19.5167 12.11 19.7367 11.8167 19.95 11.51C20.17 11.1967 20.3667 10.88 20.54 10.56C20.72 10.24 20.8633 9.92333 20.97 9.61C21.0767 9.29667 21.13 9 21.13 8.72C21.13 8.39333 21.0367 8.12333 20.85 7.91C20.6633 7.69 20.38 7.58 20 7.58C19.7467 7.58 19.5 7.63333 19.26 7.74C19.02 7.84 18.8133 7.95667 18.64 8.09L18.31 7.52C18.5433 7.32 18.82 7.16333 19.14 7.05C19.46 6.93667 19.8033 6.88 20.17 6.88C20.4567 6.88 20.71 6.92333 20.93 7.01C21.15 7.09 21.3367 7.20667 21.49 7.36C21.6433 7.51333 21.76 7.69667 21.84 7.91C21.92 8.11667 21.96 8.34333 21.96 8.59Z" fill="white"/>
</svg>
